<svg width="250" height="150" viewBox="0 0 250 150" fill="none" xmlns="http://www.w3.org/2000/svg">
<g clip-path="url(#clip0_9_7395)">
<path d="M249.136 117.054C249.142 118.059 248.748 119.024 248.041 119.738C247.334 120.452 246.373 120.857 245.368 120.862H79.5769C79.0794 120.859 78.5874 120.759 78.1288 120.566C77.6702 120.373 77.2541 120.092 76.9042 119.738C76.5543 119.385 76.2774 118.966 76.0894 118.505C75.9015 118.045 75.8061 117.552 75.8086 117.054V3.80772C75.8034 2.80311 76.1974 1.83755 76.9041 1.12346C77.6107 0.409377 78.5721 0.0052537 79.5767 0H245.368C245.866 0.0025875 246.358 0.103128 246.816 0.295879C247.275 0.48863 247.691 0.769818 248.041 1.12339C248.391 1.47696 248.668 1.89599 248.856 2.35655C249.044 2.81711 249.139 3.31019 249.136 3.80762V117.054Z" fill="#E6E6E6"/>
<path d="M247.181 115.2C247.181 116.176 246.793 117.113 246.102 117.803C245.412 118.493 244.475 118.881 243.499 118.881H81.5597C80.5832 118.881 79.6468 118.493 78.9563 117.803C78.2658 117.113 77.8779 116.176 77.8779 115.2V5.71401C77.8779 4.73754 78.2658 3.80106 78.9563 3.1106C79.6468 2.42013 80.5832 2.03223 81.5597 2.03223H243.506C244.482 2.03419 245.416 2.42295 246.105 3.11321C246.794 3.80347 247.181 4.73882 247.181 5.71401V115.2Z" fill="white"/>
<path d="M86.533 6.78613H238.699C239.278 6.78613 239.834 7.01638 240.244 7.42621C240.654 7.83605 240.884 8.3919 240.884 8.9715V111.518C240.884 112.098 240.654 112.654 240.244 113.063C239.834 113.473 239.278 113.704 238.699 113.704H86.533C85.9534 113.704 85.3976 113.473 84.9877 113.063C84.5779 112.654 84.3477 112.098 84.3477 111.518V8.9715C84.3477 8.3919 84.5779 7.83605 84.9877 7.42621C85.3976 7.01638 85.9534 6.78613 86.533 6.78613Z" fill="#E6E6E6"/>
<path d="M88.4593 9.24512H236.607C237.187 9.24512 237.743 9.47536 238.153 9.8852C238.562 10.295 238.793 10.8509 238.793 11.4305V108.505C238.793 109.085 238.562 109.641 238.153 110.05C237.743 110.46 237.187 110.691 236.607 110.691H88.4593C87.8797 110.691 87.3238 110.46 86.914 110.05C86.5042 109.641 86.2739 109.085 86.2739 108.505V11.4305C86.2739 10.8509 86.5042 10.295 86.914 9.8852C87.3238 9.47536 87.8797 9.24512 88.4593 9.24512Z" fill="white"/>
<path d="M193.062 76.6809C192.479 76.6804 191.902 76.5576 191.37 76.3203C191.246 76.2653 191.128 76.1981 191.017 76.1198L180.25 68.541C179.704 68.1566 179.259 67.6466 178.951 67.054C178.643 66.4613 178.483 65.8034 178.482 65.1356V54.7997C178.483 54.132 178.643 53.474 178.951 52.8814C179.259 52.2887 179.704 51.7787 180.25 51.3944L191.017 43.8156C191.128 43.7373 191.246 43.6701 191.37 43.6151C192.004 43.3331 192.699 43.2141 193.39 43.2688C194.082 43.3236 194.75 43.5503 195.332 43.9285C195.914 44.3067 196.392 44.8243 196.723 45.4343C197.054 46.0443 197.228 46.7273 197.228 47.4214V72.514C197.228 73.6187 196.789 74.6783 196.008 75.4595C195.226 76.2407 194.167 76.6796 193.062 76.6796L193.062 76.6809Z" fill="#3F3D56"/>
<path d="M168.966 78.7131H138.937C132.81 78.7081 127.845 74.7479 127.839 69.8612V50.0746C127.845 45.1879 132.81 41.2277 138.937 41.2227H169.044C175.127 41.2284 180.056 45.1602 180.063 50.0121V69.8612C180.057 74.7479 175.092 78.7081 168.966 78.7131Z" fill="#3F3D56"/>
<path d="M222.458 104.449C227.39 104.449 231.389 100.45 231.389 95.5179C231.389 90.5854 227.39 86.5869 222.458 86.5869C217.525 86.5869 213.527 90.5854 213.527 95.5179C213.527 100.45 217.525 104.449 222.458 104.449Z" fill="#E6E6E6"/>
<path d="M227.096 95.3575L219.977 91.2474C219.949 91.2312 219.917 91.2227 219.885 91.2227C219.853 91.2227 219.821 91.2312 219.793 91.2474C219.765 91.2637 219.741 91.287 219.725 91.3151C219.709 91.3432 219.7 91.3751 219.7 91.4075V99.6277C219.7 99.6602 219.709 99.6921 219.725 99.7202C219.741 99.7483 219.765 99.7716 219.793 99.7878C219.821 99.804 219.853 99.8126 219.885 99.8126C219.917 99.8126 219.949 99.804 219.977 99.7878L227.096 95.6777C227.124 95.6615 227.148 95.6381 227.164 95.61C227.18 95.5819 227.189 95.5501 227.189 95.5176C227.189 95.4852 227.18 95.4533 227.164 95.4252C227.148 95.3971 227.124 95.3738 227.096 95.3575L219.977 91.2474C219.949 91.2312 219.917 91.2227 219.885 91.2227C219.853 91.2227 219.821 91.2312 219.793 91.2474C219.765 91.2637 219.741 91.287 219.725 91.3151C219.709 91.3432 219.7 91.3751 219.7 91.4075V99.6277C219.7 99.6602 219.709 99.6921 219.725 99.7202C219.741 99.7483 219.765 99.7716 219.793 99.7878C219.821 99.804 219.853 99.8126 219.885 99.8126C219.917 99.8126 219.949 99.804 219.977 99.7878L227.096 95.6777C227.124 95.6615 227.148 95.6381 227.164 95.61C227.18 95.5819 227.189 95.5501 227.189 95.5176C227.189 95.4852 227.18 95.4533 227.164 95.4252C227.148 95.3971 227.124 95.3738 227.096 95.3575Z" fill="white"/>
<path d="M210.862 130.635C210.867 131.64 210.473 132.605 209.767 133.319C209.06 134.033 208.099 134.438 207.094 134.443H41.3024C40.805 134.44 40.313 134.34 39.8544 134.147C39.3958 133.954 38.9797 133.673 38.6298 133.319C38.2798 132.966 38.003 132.547 37.815 132.086C37.6271 131.626 37.5316 131.133 37.5342 130.635V17.3888C37.529 16.3842 37.923 15.4186 38.6297 14.7045C39.3363 13.9904 40.2977 13.5863 41.3023 13.5811H207.094C207.591 13.5836 208.083 13.6842 208.542 13.8769C209.001 14.0697 209.417 14.3509 209.767 14.7044C210.116 15.058 210.393 15.477 210.581 15.9376C210.769 16.3982 210.865 16.8912 210.862 17.3887V130.635Z" fill="#E6E6E6"/>
<path d="M208.906 128.781C208.906 129.757 208.518 130.694 207.828 131.384C207.138 132.074 206.201 132.462 205.225 132.462H43.2853C42.3088 132.462 41.3724 132.074 40.6819 131.384C39.9914 130.694 39.6035 129.757 39.6035 128.781V19.2951C39.6035 18.3186 39.9914 17.3821 40.6819 16.6917C41.3724 16.0012 42.3088 15.6133 43.2853 15.6133H205.232C206.207 15.6152 207.142 16.004 207.831 16.6943C208.519 17.3845 208.906 18.3199 208.906 19.2951V128.781Z" fill="white"/>
<path d="M48.2581 20.3672H200.424C201.003 20.3672 201.559 20.5974 201.969 21.0073C202.379 21.4171 202.609 21.973 202.609 22.5526V125.099C202.609 125.679 202.379 126.235 201.969 126.645C201.559 127.054 201.003 127.285 200.424 127.285H48.2581C47.6785 127.285 47.1227 127.054 46.7128 126.645C46.303 126.235 46.0728 125.679 46.0728 125.099V22.5526C46.0728 21.973 46.303 21.4171 46.7128 21.0073C47.1227 20.5974 47.6785 20.3672 48.2581 20.3672Z" fill="#E6E6E6"/>
<path d="M50.1844 22.8262H198.332C198.912 22.8262 199.468 23.0564 199.878 23.4662C200.287 23.8761 200.518 24.4319 200.518 25.0115V122.086C200.518 122.666 200.287 123.222 199.878 123.631C199.468 124.041 198.912 124.272 198.332 124.272H50.1844C49.6048 124.272 49.0489 124.041 48.6391 123.631C48.2293 123.222 47.999 122.666 47.999 122.086V25.0115C47.999 24.4319 48.2293 23.8761 48.6391 23.4662C49.0489 23.0564 49.6048 22.8262 50.1844 22.8262Z" fill="white"/>
<path d="M154.787 90.2629C154.204 90.2625 153.627 90.1396 153.095 89.9023C152.971 89.8473 152.853 89.7801 152.742 89.7018L141.975 82.123C141.429 81.7387 140.984 81.2287 140.676 80.636C140.368 80.0433 140.208 79.3854 140.208 78.7177V68.3818C140.208 67.714 140.368 67.0561 140.676 66.4634C140.984 65.8708 141.429 65.3608 141.975 64.9764L152.742 57.3976C152.853 57.3193 152.971 57.2521 153.095 57.1971C153.729 56.9152 154.424 56.7961 155.116 56.8509C155.808 56.9056 156.475 57.1323 157.057 57.5105C157.639 57.8887 158.117 58.4063 158.448 59.0163C158.779 59.6263 158.953 60.3094 158.953 61.0034V86.096C158.953 87.2008 158.514 88.2603 157.733 89.0415C156.951 89.8227 155.892 90.2616 154.787 90.2616L154.787 90.2629Z" fill="#3F3D56"/>
<path d="M130.691 92.2941H100.662C94.5357 92.2891 89.5707 88.3289 89.5645 83.4422V63.6556C89.5707 58.7689 94.5357 54.8087 100.662 54.8037H130.77C136.852 54.8095 141.782 58.7413 141.789 63.5931V83.4422C141.783 88.3289 136.818 92.2891 130.691 92.2941Z" fill="#3F3D56"/>
<path d="M184.183 118.03C189.115 118.03 193.114 114.031 193.114 109.099C193.114 104.166 189.115 100.168 184.183 100.168C179.25 100.168 175.252 104.166 175.252 109.099C175.252 114.031 179.25 118.03 184.183 118.03Z" fill="#E6E6E6"/>
<path d="M188.821 108.939L181.703 104.828C181.674 104.812 181.643 104.804 181.61 104.804C181.578 104.804 181.546 104.812 181.518 104.828C181.49 104.845 181.466 104.868 181.45 104.896C181.434 104.924 181.425 104.956 181.425 104.989V113.209C181.425 113.241 181.434 113.273 181.45 113.301C181.466 113.329 181.49 113.353 181.518 113.369C181.546 113.385 181.578 113.394 181.61 113.394C181.643 113.394 181.674 113.385 181.703 113.369L188.821 109.259C188.85 109.243 188.873 109.219 188.889 109.191C188.905 109.163 188.914 109.131 188.914 109.099C188.914 109.066 188.905 109.034 188.889 109.006C188.873 108.978 188.85 108.955 188.821 108.939L181.703 104.828C181.674 104.812 181.643 104.804 181.61 104.804C181.578 104.804 181.546 104.812 181.518 104.828C181.49 104.845 181.466 104.868 181.45 104.896C181.434 104.924 181.425 104.956 181.425 104.989V113.209C181.425 113.241 181.434 113.273 181.45 113.301C181.466 113.329 181.49 113.353 181.518 113.369C181.546 113.385 181.578 113.394 181.61 113.394C181.643 113.394 181.674 113.385 181.703 113.369L188.821 109.259C188.85 109.243 188.873 109.219 188.889 109.191C188.905 109.163 188.914 109.131 188.914 109.099C188.914 109.066 188.905 109.034 188.889 109.006C188.873 108.978 188.85 108.955 188.821 108.939Z" fill="white"/>
<path d="M173.328 146.193C173.333 147.197 172.939 148.163 172.232 148.877C171.526 149.591 170.564 149.995 169.56 150H3.76826C3.27083 149.998 2.77877 149.897 2.32019 149.705C1.86161 149.512 1.44548 149.231 1.09557 148.877C0.74566 148.524 0.468816 148.104 0.280846 147.644C0.0928766 147.183 -0.00253678 146.69 5.18548e-05 146.193V32.9464C-0.00520116 31.9418 0.388842 30.9762 1.0955 30.2621C1.80216 29.548 2.76354 29.1439 3.76816 29.1387H169.56C170.057 29.1413 170.549 29.2418 171.008 29.4346C171.466 29.6273 171.882 29.9085 172.232 30.2621C172.582 30.6156 172.859 31.0347 173.047 31.4952C173.235 31.9558 173.33 32.4489 173.328 32.9463V146.193Z" fill="#E6E6E6"/>
<path d="M171.372 144.338C171.372 145.315 170.984 146.251 170.294 146.942C169.603 147.632 168.667 148.02 167.69 148.02H5.75112C4.77465 148.02 3.83818 147.632 3.14771 146.942C2.45724 146.251 2.06934 145.315 2.06934 144.338V34.8527C2.06934 33.8762 2.45724 32.9397 3.14771 32.2493C3.83818 31.5588 4.77465 31.1709 5.75112 31.1709H167.698C168.673 31.1729 169.608 31.5616 170.296 32.2519C170.985 32.9421 171.372 33.8775 171.372 34.8527V144.338Z" fill="white"/>
<path d="M10.7244 35.9238H162.89C163.47 35.9238 164.025 36.1541 164.435 36.5639C164.845 36.9737 165.075 37.5296 165.075 38.1092V140.656C165.075 141.235 164.845 141.791 164.435 142.201C164.025 142.611 163.47 142.841 162.89 142.841H10.7244C10.1448 142.841 9.58898 142.611 9.17914 142.201C8.76931 141.791 8.53906 141.235 8.53906 140.656V38.1092C8.53906 37.5296 8.76931 36.9737 9.17914 36.5639C9.58898 36.1541 10.1448 35.9238 10.7244 35.9238Z" fill="#E6E6E6"/>
<path d="M12.6507 38.3838H160.799C161.086 38.3838 161.37 38.4403 161.635 38.5501C161.9 38.66 162.141 38.8209 162.344 39.0239C162.547 39.2268 162.708 39.4677 162.818 39.7328C162.928 39.998 162.984 40.2822 162.984 40.5692V137.644C162.984 137.931 162.928 138.215 162.818 138.48C162.708 138.745 162.547 138.986 162.344 139.189C162.141 139.392 161.9 139.553 161.635 139.663C161.37 139.773 161.086 139.829 160.799 139.829H12.6507C12.0711 139.829 11.5152 139.599 11.1054 139.189C10.6956 138.779 10.4653 138.223 10.4653 137.644V40.5692C10.4653 39.9896 10.6956 39.4337 11.1054 39.0239C11.5152 38.614 12.0711 38.3838 12.6507 38.3838Z" fill="white"/>
<path d="M117.253 105.82C116.67 105.819 116.093 105.696 115.561 105.459C115.437 105.404 115.319 105.337 115.208 105.258L104.441 97.6797C103.895 97.2953 103.449 96.7853 103.142 96.1927C102.834 95.6 102.673 94.9421 102.673 94.2743V83.9384C102.673 83.2707 102.834 82.6127 103.142 82.0201C103.449 81.4274 103.895 80.9174 104.441 80.533L115.208 72.9542C115.319 72.8759 115.437 72.8088 115.561 72.7538C116.195 72.4718 116.89 72.3528 117.581 72.4075C118.273 72.4622 118.941 72.689 119.523 73.0672C120.105 73.4453 120.583 73.9629 120.914 74.5729C121.245 75.1829 121.419 75.866 121.419 76.5601V101.653C121.419 102.757 120.98 103.817 120.198 104.598C119.417 105.379 118.358 105.818 117.253 105.818L117.253 105.82Z" fill="#DC3545"/>
<path d="M93.1571 107.852H63.128C57.0015 107.847 52.0366 103.887 52.0303 98.9998V79.2132C52.0366 74.3265 57.0015 70.3664 63.128 70.3613H93.2354C99.3182 70.3671 104.248 74.2989 104.255 79.1508V98.9998C104.248 103.887 99.2835 107.847 93.1571 107.852Z" fill="#DC3545"/>
<path d="M146.649 133.586C151.582 133.586 155.58 129.588 155.58 124.656C155.58 119.723 151.582 115.725 146.649 115.725C141.717 115.725 137.718 119.723 137.718 124.656C137.718 129.588 141.717 133.586 146.649 133.586Z" fill="#3F3D56"/>
<path d="M151.288 124.495L144.169 120.385C144.141 120.369 144.109 120.36 144.076 120.36C144.044 120.36 144.012 120.369 143.984 120.385C143.956 120.401 143.933 120.425 143.916 120.453C143.9 120.481 143.892 120.513 143.892 120.545V128.765C143.892 128.798 143.9 128.83 143.916 128.858C143.933 128.886 143.956 128.909 143.984 128.926C144.012 128.942 144.044 128.95 144.076 128.95C144.109 128.95 144.141 128.942 144.169 128.926L151.288 124.815C151.316 124.799 151.339 124.776 151.355 124.748C151.372 124.72 151.38 124.688 151.38 124.655C151.38 124.623 151.372 124.591 151.355 124.563C151.339 124.535 151.316 124.511 151.288 124.495L144.169 120.385C144.141 120.369 144.109 120.36 144.076 120.36C144.044 120.36 144.012 120.369 143.984 120.385C143.956 120.401 143.933 120.425 143.916 120.453C143.9 120.481 143.892 120.513 143.892 120.545V128.765C143.892 128.798 143.9 128.83 143.916 128.858C143.933 128.886 143.956 128.909 143.984 128.926C144.012 128.942 144.044 128.95 144.076 128.95C144.109 128.95 144.141 128.942 144.169 128.926L151.288 124.815C151.316 124.799 151.339 124.776 151.355 124.748C151.372 124.72 151.38 124.688 151.38 124.655C151.38 124.623 151.372 124.591 151.355 124.563C151.339 124.535 151.316 124.511 151.288 124.495Z" fill="white"/>
</g>
<defs>
<clipPath id="clip0_9_7395">
<rect width="249.137" height="150" fill="white"/>
</clipPath>
</defs>
</svg>
