<svg xmlns="http://www.w3.org/2000/svg" width="430" height="430" style="width:100%;height:100%;transform:translate3d(0,0,0);content-visibility:visible" viewBox="0 0 430 430"><defs><path id="b" style="display:none"/><path id="d" style="display:none"/><path id="f" style="display:none"/><path id="h" style="display:none"/><path id="i" style="display:none"/><path id="k" style="display:none"/><path id="m" fill="#F28BA8" d="M62.5 185c11.046 0 20-8.954 20-20V-34m0-44c0-11.046-8.954-20-20-20l-160 .062c-11.046 0-20 8.954-20 20L49.347-67.233 51 151.944l-168.5-1.25v14.368c0 11.046 8.954 20 20 20l160-.062c11.046 0 20-8.954 20-20V-78z" style="display:block" transform="translate(252.554 220.306)"/><path id="o" fill="#F28BA8" d="M62.5 185c11.046 0 20-8.954 20-20V-34m0-44c0-11.046-8.954-20-20-20l-160 .062c-11.046 0-20 8.954-20 20L49.347-67.233 51 151.944l-168.5-1.25v14.368c0 11.046 8.954 20 20 20l160-.062c11.046 0 20-8.954 20-20V-78z" style="display:block" transform="translate(252.554 220.306)"/><mask id="C" mask-type="alpha"><g filter="url(#a)"><path fill="#fff" d="M0 0h430v430H0z" opacity="0"/><use xmlns:ns1="http://www.w3.org/1999/xlink" ns1:href="#b"/></g></mask><mask id="B" mask-type="alpha"><g filter="url(#c)"><path fill="#fff" d="M0 0h430v430H0z" opacity="0"/><use xmlns:ns2="http://www.w3.org/1999/xlink" ns2:href="#d"/></g></mask><mask id="y" mask-type="alpha"><g filter="url(#e)"><path fill="#fff" d="M0 0h430v430H0z" opacity="0"/><use xmlns:ns3="http://www.w3.org/1999/xlink" ns3:href="#f"/></g></mask><mask id="x" mask-type="alpha"><g filter="url(#g)"><path fill="#fff" d="M0 0h430v430H0z" opacity="0"/><use xmlns:ns4="http://www.w3.org/1999/xlink" ns4:href="#h"/></g></mask><mask id="w" mask-type="alpha"><use xmlns:ns5="http://www.w3.org/1999/xlink" ns5:href="#i"/></mask><mask id="v" mask-type="alpha"><g filter="url(#j)"><path fill="#fff" d="M0 0h430v430H0z" opacity="0"/><use xmlns:ns6="http://www.w3.org/1999/xlink" ns6:href="#k"/></g></mask><mask id="s" mask-type="alpha"><g filter="url(#l)"><path fill="#fff" d="M0 0h430v430H0z" opacity="0"/><use xmlns:ns7="http://www.w3.org/1999/xlink" ns7:href="#m"/></g></mask><mask id="r" mask-type="alpha"><g filter="url(#n)"><path fill="#fff" d="M0 0h430v430H0z" opacity="0"/><use xmlns:ns8="http://www.w3.org/1999/xlink" ns8:href="#o"/></g></mask><clipPath id="p"><path d="M0 0h430v430H0z"/></clipPath><clipPath id="A"><path d="M0 0h430v430H0z"/></clipPath><clipPath id="D"><path d="M0 0h430v430H0z"/></clipPath><clipPath id="q"><path d="M0 0h430v430H0z"/></clipPath><clipPath id="z"><path d="M0 0h430v430H0z"/></clipPath><clipPath id="u"><path d="M0 0h430v430H0z"/></clipPath><clipPath id="t"><path d="M0 0h430v430H0z"/></clipPath><filter id="a" width="100%" height="100%" x="0%" y="0%" filterUnits="objectBoundingBox"><feComponentTransfer in="SourceGraphic"><feFuncA tableValues="1.0 0.0" type="table"/></feComponentTransfer></filter><filter id="c" width="100%" height="100%" x="0%" y="0%" filterUnits="objectBoundingBox"><feComponentTransfer in="SourceGraphic"><feFuncA tableValues="1.0 0.0" type="table"/></feComponentTransfer></filter><filter id="e" width="100%" height="100%" x="0%" y="0%" filterUnits="objectBoundingBox"><feComponentTransfer in="SourceGraphic"><feFuncA tableValues="1.0 0.0" type="table"/></feComponentTransfer></filter><filter id="g" width="100%" height="100%" x="0%" y="0%" filterUnits="objectBoundingBox"><feComponentTransfer in="SourceGraphic"><feFuncA tableValues="1.0 0.0" type="table"/></feComponentTransfer></filter><filter id="j" width="100%" height="100%" x="0%" y="0%" filterUnits="objectBoundingBox"><feComponentTransfer in="SourceGraphic"><feFuncA tableValues="1.0 0.0" type="table"/></feComponentTransfer></filter><filter id="l" width="100%" height="100%" x="0%" y="0%" filterUnits="objectBoundingBox"><feComponentTransfer in="SourceGraphic"><feFuncA tableValues="1.0 0.0" type="table"/></feComponentTransfer></filter><filter id="n" width="100%" height="100%" x="0%" y="0%" filterUnits="objectBoundingBox"><feComponentTransfer in="SourceGraphic"><feFuncA tableValues="1.0 0.0" type="table"/></feComponentTransfer></filter></defs><g clip-path="url(#p)"><g clip-path="url(#q)" style="display:block"><path fill="#F28BA8" d="M-117.5-34v199c0 11.046 8.954 20 20 20h160c11.046 0 20-8.954 20-20V-34m-90-63.625V185m40 0V-97.625M82.5-78c0-11.046-8.954-20-20-20l-160 .062c-11.046 0-20 8.954-20 20v243c0 11.046 8.954 20 20 20l160-.062c11.046 0 20-8.954 20-20V-78z" class="septenary" style="display:block" transform="translate(222.554 220.306)"/><g mask="url(#r)" opacity=".5" style="mix-blend-mode:multiply;display:block"><path fill="#F28BA8" d="M105.054 186.306v199c0 11.046 8.954 20 20 20h160c11.046 0 20-8.954 20-20v-199m-90-63.625v282.625m40 0V122.681m50 19.625c0-11.046-8.954-20-20-20l-160 .062c-11.046 0-20 8.954-20 20v243c0 11.046 8.954 20 20 20l160-.062c11.046 0 20-8.954 20-20v-243z" class="septenary" opacity="1"/></g><path fill="#3A3347" d="M20.42-131.222 20.304 152h-40.5l.116-283.222h40.5z" class="senary" style="display:block" transform="translate(234.75 253.5)"/><g mask="url(#s)" opacity=".5" style="mix-blend-mode:multiply;display:block"><path fill="#3A3347" d="m255.17 122.278-.116 283.222h-40.5l.116-283.222h40.5z" class="senary" opacity="1"/></g><g clip-path="url(#t)" style="display:block"><path fill="#3A3347" d="M-20-90h37a3 3 0 0 1 3 3V87a3 3 0 0 1-3 3h-37V-90z" class="senary" style="display:block" transform="translate(345 195)"/><g opacity=".5" style="mix-blend-mode:multiply;display:block"><path fill="#3A3347" d="M330 285V105h17.5v180H330z" class="senary" opacity="1"/></g><path fill="#3A3347" d="M-105-160c-11.046 0-20 8.954-20 20v280c0 11.046 8.954 20 20 20h210c11.046 0 20-8.954 20-20v-280c0-11.046-8.954-20-20-20h-210z" class="senary" style="display:block" transform="translate(205 195)"/><path fill="#EBE6EF" d="M-23.333 39.5a3 3 0 0 0 3 3h40.666a3 3 0 0 0 3-3v-29a3 3 0 0 0-3-3h-40.666a3 3 0 0 0-3 3v29zm-15-79a3 3 0 0 0-3-3H-75c-5.523 0-10 4.477-10 10v22a3 3 0 0 0 3 3h40.667a3 3 0 0 0 3-3v-29zM-82 7.5a3 3 0 0 0-3 3v29a3 3 0 0 0 3 3h40.667a3 3 0 0 0 3-3v-29a3 3 0 0 0-3-3H-82zm164 35a3 3 0 0 0 3-3v-29a3 3 0 0 0-3-3H41.333a3 3 0 0 0-3 3v29a3 3 0 0 0 3 3H82zm0-50a3 3 0 0 0 3-3v-22c0-5.523-4.477-10-10-10H41.333a3 3 0 0 0-3 3v29a3 3 0 0 0 3 3H82zm-58.667-32a3 3 0 0 0-3-3h-40.666a3 3 0 0 0-3 3v29a3 3 0 0 0 3 3h40.666a3 3 0 0 0 3-3v-29z" class="primary" style="display:block" transform="translate(205 222.5)"/><g opacity=".5" style="mix-blend-mode:multiply;display:block"><path fill="#3A3347" d="M80 55c0-11.046 8.954-20 20-20h20c-11.046 0-20 8.954-20 20v280c0 11.046 8.954 20 20 20h-20c-11.046 0-20-8.954-20-20V55z" class="senary" opacity="1"/></g><path fill="#4BB3FD" d="M-82-32.5a3 3 0 0 0-3 3v59a3 3 0 0 0 3 3H82a3 3 0 0 0 3-3v-59a3 3 0 0 0-3-3H-82z" class="quinary" style="display:block" transform="translate(205 107.5)"/><g opacity=".5" style="mix-blend-mode:multiply;display:block"><path fill="#4BB3FD" d="M123 75a3 3 0 0 0-3 3v59a3 3 0 0 0 3 3h27V75h-27z" class="quinary" opacity="1"/></g><path fill="#08A88A" d="M-23.333 14.5a3 3 0 0 0 3 3h33.666c5.523 0 10-4.477 10-10v-22a3 3 0 0 0-3-3h-40.666a3 3 0 0 0-3 3v29z" class="tertiary" style="display:block" transform="translate(266.667 297.5)"/><path fill="#FFC738" d="M-23.333 14.5a3 3 0 0 0 3 3h40.666a3 3 0 0 0 3-3v-29a3 3 0 0 0-3-3h-40.666a3 3 0 0 0-3 3v29z" class="quaternary" style="display:block" transform="translate(205 297.5)"/><g opacity=".5" style="mix-blend-mode:multiply;display:block"><path fill="#FFC738" d="M181.666 312v-29a3 3 0 0 1 3-3H205v35h-20.334a3 3 0 0 1-3-3z" class="quaternary" opacity="1"/></g><path fill="#F24C00" d="M-20.333-17.5a3 3 0 0 0-3 3v22c0 5.523 4.477 10 10 10h33.666a3 3 0 0 0 3-3v-29a3 3 0 0 0-3-3h-40.666z" class="secondary" style="display:block" transform="translate(143.333 297.5)"/><g opacity=".5" style="mix-blend-mode:multiply;display:block"><path fill="#08A88A" d="M243.333 312v-29a3 3 0 0 1 3-3h20.334v35h-20.334a3 3 0 0 1-3-3z" class="tertiary" opacity="1"/></g><g opacity=".5" style="mix-blend-mode:multiply;display:block"><path fill="#F24C00" d="M120 283a3 3 0 0 1 3-3h20.334v35H130c-5.523 0-10-4.477-10-10v-22z" class="secondary" opacity="1"/></g><g opacity=".5" style="mix-blend-mode:multiply;display:block"><path fill="#EBE6EF" d="M120 262v-29a3 3 0 0 1 3-3h20.334v35H123a3 3 0 0 1-3-3z" class="primary" opacity="1"/></g><g opacity=".5" style="mix-blend-mode:multiply;display:block"><path fill="#EBE6EF" d="M181.667 233a3 3 0 0 1 3-3h20.334v35h-20.334a3 3 0 0 1-3-3v-29z" class="primary" opacity="1"/></g><g opacity=".5" style="mix-blend-mode:multiply;display:block"><path fill="#EBE6EF" d="M243.334 262v-29a3 3 0 0 1 3-3h20.334v35h-20.334a3 3 0 0 1-3-3z" class="primary" opacity="1"/></g><g opacity=".5" style="mix-blend-mode:multiply;display:block"><path fill="#EBE6EF" d="M243.333 183a3 3 0 0 1 3-3h20.334v35h-20.334a3 3 0 0 1-3-3v-29z" class="primary" opacity="1"/></g><g opacity=".5" style="mix-blend-mode:multiply;display:block"><path fill="#EBE6EF" d="M181.666 183a3 3 0 0 1 3-3H205v35h-20.334a3 3 0 0 1-3-3v-29z" class="primary" opacity="1"/></g><g opacity=".5" style="mix-blend-mode:multiply;display:block"><path fill="#EBE6EF" d="M120 212v-32h23.334v35H123a3 3 0 0 1-3-3z" class="primary" opacity="1"/></g></g><g clip-path="url(#u)" style="display:none"><path class="senary" style="display:none"/><path class="senary" style="mix-blend-mode:multiply;display:none"/><path class="senary" style="display:none"/><path class="primary" style="display:none"/><path class="senary" style="mix-blend-mode:multiply;display:none"/><path class="quinary" style="display:none"/><path class="quinary" style="mix-blend-mode:multiply;display:none"/><path class="tertiary" style="display:none"/><path class="quaternary" style="display:none"/><path class="quaternary" style="mix-blend-mode:multiply;display:none"/><path class="secondary" style="display:none"/><path class="tertiary" style="mix-blend-mode:multiply;display:none"/><path class="secondary" style="mix-blend-mode:multiply;display:none"/><path class="primary" style="mix-blend-mode:multiply;display:none"/><path class="primary" style="mix-blend-mode:multiply;display:none"/><path class="primary" style="mix-blend-mode:multiply;display:none"/><path class="primary" style="mix-blend-mode:multiply;display:none"/><path class="primary" style="mix-blend-mode:multiply;display:none"/><path class="primary" style="mix-blend-mode:multiply;display:none"/></g><path class="septenary" style="display:none"/><g mask="url(#v)" style="mix-blend-mode:multiply;display:none"><path class="septenary"/></g><g mask="url(#w)" style="display:none"><path class="senary"/></g><path class="septenary" style="display:none"/><g mask="url(#x)" style="mix-blend-mode:multiply;display:none"><path class="septenary"/></g><path class="senary" style="display:none"/><g mask="url(#y)" style="mix-blend-mode:multiply;display:none"><path class="senary"/></g><g clip-path="url(#z)" style="display:none"><path class="senary" style="display:none"/><path class="senary" style="mix-blend-mode:multiply;display:none"/><path class="senary" style="display:none"/><path class="primary" style="display:none"/><path class="senary" style="mix-blend-mode:multiply;display:none"/><path class="quinary" style="display:none"/><path class="quinary" style="mix-blend-mode:multiply;display:none"/><path class="tertiary" style="display:none"/><path class="quaternary" style="display:none"/><path class="quaternary" style="mix-blend-mode:multiply;display:none"/><path class="secondary" style="display:none"/><path class="tertiary" style="mix-blend-mode:multiply;display:none"/><path class="secondary" style="mix-blend-mode:multiply;display:none"/><path class="primary" style="mix-blend-mode:multiply;display:none"/><path class="primary" style="mix-blend-mode:multiply;display:none"/><path class="primary" style="mix-blend-mode:multiply;display:none"/><path class="primary" style="mix-blend-mode:multiply;display:none"/><path class="primary" style="mix-blend-mode:multiply;display:none"/><path class="primary" style="mix-blend-mode:multiply;display:none"/></g><path fill="none" class="primary" style="display:none"/></g><g clip-path="url(#A)" style="display:none"><path class="septenary" style="display:none"/><g mask="url(#B)" style="mix-blend-mode:multiply;display:none"><path class="septenary"/></g><path class="senary" style="display:none"/><g mask="url(#C)" style="mix-blend-mode:multiply;display:none"><path class="senary"/></g><path class="senary" style="display:none"/><path class="senary" style="mix-blend-mode:multiply;display:none"/><path class="senary" style="display:none"/><path class="senary" style="mix-blend-mode:multiply;display:none"/><path class="quinary" style="display:none"/><path class="quinary" style="mix-blend-mode:multiply;display:none"/><path fill="none" class="primary" style="display:none"/><g style="display:none"><path class="tertiary"/><path class="tertiary" style="mix-blend-mode:multiply"/></g><g style="display:none"><path class="secondary"/><path class="secondary" style="mix-blend-mode:multiply"/></g><g style="display:none"><path class="primary"/><path class="primary" style="mix-blend-mode:multiply"/></g><g style="display:none"><path class="primary"/><path class="primary" style="mix-blend-mode:multiply"/></g><g style="display:none"><path class="quaternary"/><path class="quaternary" style="mix-blend-mode:multiply"/></g><g style="display:none"><path class="primary"/><path class="primary" style="mix-blend-mode:multiply"/></g><g style="display:none"><path class="primary"/><path class="primary" style="mix-blend-mode:multiply"/><path class="primary" style="mix-blend-mode:multiply"/></g><g style="display:none"><path class="primary"/><path class="primary" style="mix-blend-mode:multiply"/></g><g clip-path="url(#D)" style="display:none"><path class="primary" style="display:none"/><path class="tertiary" style="display:none"/><path class="quaternary" style="display:none"/><path class="quaternary" style="mix-blend-mode:multiply;display:none"/><path class="secondary" style="display:none"/><path class="tertiary" style="mix-blend-mode:multiply;display:none"/><path class="secondary" style="mix-blend-mode:multiply;display:none"/><path class="primary" style="mix-blend-mode:multiply;display:none"/><path class="primary" style="mix-blend-mode:multiply;display:none"/><path class="primary" style="mix-blend-mode:multiply;display:none"/><path class="primary" style="mix-blend-mode:multiply;display:none"/><path class="primary" style="mix-blend-mode:multiply;display:none"/><path class="primary" style="mix-blend-mode:multiply;display:none"/></g></g></g></svg>